<svg xmlns="http://www.w3.org/2000/svg" viewBox="0 0 128 128">
  <defs>
    <linearGradient id="bg" x1="0" y1="0" x2="1" y2="1">
      <stop offset="0%" stop-color="#0ea5e9"/>
      <stop offset="100%" stop-color="#0369a1"/>
    </linearGradient>
    <linearGradient id="icon" x1="0" y1="0" x2="1" y2="1">
      <stop offset="0%" stop-color="#ffffff"/>
      <stop offset="100%" stop-color="#f1f5f9"/>
    </linearGradient>
  </defs>
  
  <!-- Background with rounded corners -->
  <rect width="128" height="128" rx="20" fill="url(#bg)"/>
  
  <!-- Main icon - inclusive hands symbol -->
  <g fill="url(#icon)">
    <!-- Left hand -->
    <path d="M35 45 L45 35 L55 45 L50 50 L40 50 Z"/>
    <!-- Right hand -->
    <path d="M73 45 L83 35 L93 45 L88 50 L78 50 Z"/>
    <!-- Connection line -->
    <rect x="55" y="42" width="18" height="4" rx="2"/>
    <!-- Heart symbol for inclusivity -->
    <path d="M64 60 C64 60, 58 55, 58 50 C58 45, 64 45, 64 50 C64 45, 70 45, 70 50 C70 55, 64 60, 64 60 Z"/>
  </g>
  
  <!-- Subtle border for better visibility -->
  <rect width="128" height="128" rx="20" fill="none" stroke="#ffffff" stroke-width="2" opacity="0.3"/>
</svg>